{
    "asset" : {
        "generator" : "Khronos glTF Blender I/O v3.2.43",
        "version" : "2.0"
    },
    "scene" : 0,
    "scenes" : [
        {
            "name" : "Scene",
            "nodes" : [
                0,
                1,
                2
            ]
        }
    ],
    "nodes" : [
        {
            "mesh" : 0,
            "name" : "Gun"
        },
        {
            "mesh" : 1,
            "name" : "Magazine",
            "scale" : [
                0.9964132308959961,
                1,
                0.9412009119987488
            ],
            "translation" : [
                -4.060060024261475,
                -6.331977367401123,
                0
            ]
        },
        {
            "mesh" : 2,
            "name" : "Bolt Carrier"
        }
    ],
    "meshes" : [
        {
            "name" : "Cube.001",
            "primitives" : [
                {
                    "attributes" : {
                        "POSITION" : 0,
                        "NORMAL" : 1,
                        "TEXCOORD_0" : 2
                    },
                    "indices" : 3
                }
            ]
        },
        {
            "name" : "Cube.002",
            "primitives" : [
                {
                    "attributes" : {
                        "POSITION" : 4,
                        "NORMAL" : 5,
                        "TEXCOORD_0" : 6
                    },
                    "indices" : 7
                }
            ]
        },
        {
            "name" : "Cube.003",
            "primitives" : [
                {
                    "attributes" : {
                        "POSITION" : 8,
                        "NORMAL" : 9,
                        "TEXCOORD_0" : 10
                    },
                    "indices" : 11
                }
            ]
        }
    ],
    "accessors" : [
        {
            "bufferView" : 0,
            "componentType" : 5126,
            "count" : 19052,
            "max" : [
                11.222809791564941,
                1.8090559244155884,
                1
            ],
            "min" : [
                -21.129846572875977,
                -5.378569602966309,
                -1.000000238418579
            ],
            "type" : "VEC3"
        },
        {
            "bufferView" : 1,
            "componentType" : 5126,
            "count" : 19052,
            "type" : "VEC3"
        },
        {
            "bufferView" : 2,
            "componentType" : 5126,
            "count" : 19052,
            "type" : "VEC2"
        },
        {
            "bufferView" : 3,
            "componentType" : 5123,
            "count" : 30180,
            "type" : "SCALAR"
        },
        {
            "bufferView" : 4,
            "componentType" : 5126,
            "count" : 10744,
            "max" : [
                1.8177286386489868,
                6.06318473815918,
                0.5767779350280762
            ],
            "min" : [
                -1.4221266508102417,
                -1.4992011785507202,
                -0.5767711400985718
            ],
            "type" : "VEC3"
        },
        {
            "bufferView" : 5,
            "componentType" : 5126,
            "count" : 10744,
            "type" : "VEC3"
        },
        {
            "bufferView" : 6,
            "componentType" : 5126,
            "count" : 10744,
            "type" : "VEC2"
        },
        {
            "bufferView" : 7,
            "componentType" : 5123,
            "count" : 16710,
            "type" : "SCALAR"
        },
        {
            "bufferView" : 8,
            "componentType" : 5126,
            "count" : 1088,
            "max" : [
                2.403877019882202,
                0.7390309572219849,
                1.8378536701202393
            ],
            "min" : [
                -5.930731773376465,
                -0.19020560383796692,
                -0.24134418368339539
            ],
            "type" : "VEC3"
        },
        {
            "bufferView" : 9,
            "componentType" : 5126,
            "count" : 1088,
            "type" : "VEC3"
        },
        {
            "bufferView" : 10,
            "componentType" : 5126,
            "count" : 1088,
            "type" : "VEC2"
        },
        {
            "bufferView" : 11,
            "componentType" : 5123,
            "count" : 1800,
            "type" : "SCALAR"
        }
    ],
    "bufferViews" : [
        {
            "buffer" : 0,
            "byteLength" : 228624,
            "byteOffset" : 0
        },
        {
            "buffer" : 0,
            "byteLength" : 228624,
            "byteOffset" : 228624
        },
        {
            "buffer" : 0,
            "byteLength" : 152416,
            "byteOffset" : 457248
        },
        {
            "buffer" : 0,
            "byteLength" : 60360,
            "byteOffset" : 609664
        },
        {
            "buffer" : 0,
            "byteLength" : 128928,
            "byteOffset" : 670024
        },
        {
            "buffer" : 0,
            "byteLength" : 128928,
            "byteOffset" : 798952
        },
        {
            "buffer" : 0,
            "byteLength" : 85952,
            "byteOffset" : 927880
        },
        {
            "buffer" : 0,
            "byteLength" : 33420,
            "byteOffset" : 1013832
        },
        {
            "buffer" : 0,
            "byteLength" : 13056,
            "byteOffset" : 1047252
        },
        {
            "buffer" : 0,
            "byteLength" : 13056,
            "byteOffset" : 1060308
        },
        {
            "buffer" : 0,
            "byteLength" : 8704,
            "byteOffset" : 1073364
        },
        {
            "buffer" : 0,
            "byteLength" : 3600,
            "byteOffset" : 1082068
        }
    ],
    "buffers" : [
        {
            "byteLength" : 1085668,
            "uri" : "data:application/octet-stream;base64,"
        }
    ]
}
