{
    "asset" : {
        "generator" : "Khronos glTF Blender I/O v3.2.43",
        "version" : "2.0"
    },
    "scene" : 0,
    "scenes" : [
        {
            "name" : "Scene",
            "nodes" : [
                0,
                1,
                2
            ]
        }
    ],
    "nodes" : [
        {
            "mesh" : 0,
            "name" : "Basic_Rock",
            "translation" : [
                -13.242692947387695,
                0,
                0
            ]
        },
        {
            "mesh" : 1,
            "name" : "Flat_Rock"
        },
        {
            "mesh" : 2,
            "name" : "Tall_Rock",
            "translation" : [
                -7.017809867858887,
                0,
                0
            ]
        }
    ],
    "meshes" : [
        {
            "name" : "Cube.001",
            "primitives" : [
                {
                    "attributes" : {
                        "POSITION" : 0,
                        "NORMAL" : 1,
                        "TEXCOORD_0" : 2
                    },
                    "indices" : 3
                }
            ]
        },
        {
            "name" : "Cylinder",
            "primitives" : [
                {
                    "attributes" : {
                        "POSITION" : 4,
                        "NORMAL" : 5,
                        "TEXCOORD_0" : 6
                    },
                    "indices" : 7
                }
            ]
        },
        {
            "name" : "Cylinder.001",
            "primitives" : [
                {
                    "attributes" : {
                        "POSITION" : 8,
                        "NORMAL" : 9,
                        "TEXCOORD_0" : 10
                    },
                    "indices" : 11
                }
            ]
        }
    ],
    "accessors" : [
        {
            "bufferView" : 0,
            "componentType" : 5126,
            "count" : 121,
            "max" : [
                1.4809894561767578,
                0.875409722328186,
                1.408128261566162
            ],
            "min" : [
                -1.4365805387496948,
                -1.0352113246917725,
                -1.4176393747329712
            ],
            "type" : "VEC3"
        },
        {
            "bufferView" : 1,
            "componentType" : 5126,
            "count" : 121,
            "type" : "VEC3"
        },
        {
            "bufferView" : 2,
            "componentType" : 5126,
            "count" : 121,
            "type" : "VEC2"
        },
        {
            "bufferView" : 3,
            "componentType" : 5123,
            "count" : 396,
            "type" : "SCALAR"
        },
        {
            "bufferView" : 4,
            "componentType" : 5126,
            "count" : 122,
            "max" : [
                3.0358569622039795,
                0.7352693676948547,
                3.0358569622039795
            ],
            "min" : [
                -3.0358569622039795,
                -0.8089649081230164,
                -3.1375718116760254
            ],
            "type" : "VEC3"
        },
        {
            "bufferView" : 5,
            "componentType" : 5126,
            "count" : 122,
            "type" : "VEC3"
        },
        {
            "bufferView" : 6,
            "componentType" : 5126,
            "count" : 122,
            "type" : "VEC2"
        },
        {
            "bufferView" : 7,
            "componentType" : 5123,
            "count" : 420,
            "type" : "SCALAR"
        },
        {
            "bufferView" : 8,
            "componentType" : 5126,
            "count" : 170,
            "max" : [
                1.6413791179656982,
                3.269531488418579,
                1.4574824571609497
            ],
            "min" : [
                -1.477507472038269,
                -3.452880859375,
                -1.5825270414352417
            ],
            "type" : "VEC3"
        },
        {
            "bufferView" : 9,
            "componentType" : 5126,
            "count" : 170,
            "type" : "VEC3"
        },
        {
            "bufferView" : 10,
            "componentType" : 5126,
            "count" : 170,
            "type" : "VEC2"
        },
        {
            "bufferView" : 11,
            "componentType" : 5123,
            "count" : 708,
            "type" : "SCALAR"
        }
    ],
    "bufferViews" : [
        {
            "buffer" : 0,
            "byteLength" : 1452,
            "byteOffset" : 0
        },
        {
            "buffer" : 0,
            "byteLength" : 1452,
            "byteOffset" : 1452
        },
        {
            "buffer" : 0,
            "byteLength" : 968,
            "byteOffset" : 2904
        },
        {
            "buffer" : 0,
            "byteLength" : 792,
            "byteOffset" : 3872
        },
        {
            "buffer" : 0,
            "byteLength" : 1464,
            "byteOffset" : 4664
        },
        {
            "buffer" : 0,
            "byteLength" : 1464,
            "byteOffset" : 6128
        },
        {
            "buffer" : 0,
            "byteLength" : 976,
            "byteOffset" : 7592
        },
        {
            "buffer" : 0,
            "byteLength" : 840,
            "byteOffset" : 8568
        },
        {
            "buffer" : 0,
            "byteLength" : 2040,
            "byteOffset" : 9408
        },
        {
            "buffer" : 0,
            "byteLength" : 2040,
            "byteOffset" : 11448
        },
        {
            "buffer" : 0,
            "byteLength" : 1360,
            "byteOffset" : 13488
        },
        {
            "buffer" : 0,
            "byteLength" : 1416,
            "byteOffset" : 14848
        }
    ],
    "buffers" : [
        {
            "byteLength" : 16264,
            "uri" : "data:application/octet-stream;base64,"
        }
    ]
}
